<svg width="1440" height="541" viewBox="0 0 1440 541" fill="none" xmlns="http://www.w3.org/2000/svg">
<g filter="url(#filter0_d)">
<path d="M1284.77 258.5C1311.16 210.1 1409.25 155.667 1455 134.5V571H-14V85C1.35765 88 51.2781 111.6 128.099 182C224.124 270 163.017 344 197.936 317C232.854 290 274.077 319 272.137 301C270.198 283 322.09 278.5 346.339 301C370.588 323.5 446.73 290 520.931 384.5C595.133 479 778.455 465.5 854.597 407C930.738 348.5 1037.92 312.5 1101.45 344C1164.98 375.5 1251.79 319 1284.77 258.5Z" fill="#2CDA91"/>
</g>
<defs>
<filter id="filter0_d" x="-94" y="0" width="1629" height="646" filterUnits="userSpaceOnUse" color-interpolation-filters="sRGB">
<feFlood flood-opacity="0" result="BackgroundImageFix"/>
<feColorMatrix in="SourceAlpha" type="matrix" values="0 0 0 0 0 0 0 0 0 0 0 0 0 0 0 0 0 0 127 0"/>
<feOffset dy="-5"/>
<feGaussianBlur stdDeviation="40"/>
<feColorMatrix type="matrix" values="0 0 0 0 0 0 0 0 0 0 0 0 0 0 0 0 0 0 0.25 0"/>
<feBlend mode="normal" in2="BackgroundImageFix" result="effect1_dropShadow"/>
<feBlend mode="normal" in="SourceGraphic" in2="effect1_dropShadow" result="shape"/>
</filter>
</defs>
</svg>
