<svg width="1440" height="660" viewBox="0 0 1440 660" fill="none" xmlns="http://www.w3.org/2000/svg">
<g filter="url(#filter0_d)">
<path d="M127.049 143.356C105.442 114.627 22.0132 119.415 -17 125.4V691H1455V85C1441.5 125.4 1331.46 199.716 1254.93 199.716C1178.41 199.716 1099.38 262.561 1052.36 304.956C1005.35 347.351 910.315 340.867 856.297 304.956C802.52 269.205 746.762 304.635 690.5 340.384L689.74 340.867C633.221 376.778 514.18 354.333 467.164 304.956C420.148 255.578 356.627 264.556 318.614 280.516C280.601 296.477 246.59 264.556 221.581 228.644C196.573 192.733 194.572 228.644 190.07 199.716C185.569 170.788 154.058 179.267 127.049 143.356Z" fill="#0DA263"/>
</g>
<defs>
<filter id="filter0_d" x="-97" y="0" width="1632" height="766" filterUnits="userSpaceOnUse" color-interpolation-filters="sRGB">
<feFlood flood-opacity="0" result="BackgroundImageFix"/>
<feColorMatrix in="SourceAlpha" type="matrix" values="0 0 0 0 0 0 0 0 0 0 0 0 0 0 0 0 0 0 127 0"/>
<feOffset dy="-5"/>
<feGaussianBlur stdDeviation="40"/>
<feColorMatrix type="matrix" values="0 0 0 0 0 0 0 0 0 0 0 0 0 0 0 0 0 0 0.25 0"/>
<feBlend mode="normal" in2="BackgroundImageFix" result="effect1_dropShadow"/>
<feBlend mode="normal" in="SourceGraphic" in2="effect1_dropShadow" result="shape"/>
</filter>
</defs>
</svg>
