<svg width="1440" height="554" viewBox="0 0 1440 554" fill="none" xmlns="http://www.w3.org/2000/svg">
<g filter="url(#filter0_d)">
<path d="M1288.49 140.345C1311.35 97.9613 1409.02 94.3031 1455 97.772V585H-15V85C168.75 87.3652 171.213 199.948 211.116 246.779C251.019 293.609 364.323 261.443 452.996 261.443C541.669 261.443 583.542 314.896 672.215 346.589C760.888 378.283 794.387 304.016 827.393 261.443C860.399 218.869 869.759 286.987 914.095 261.443C958.432 235.899 958.432 286.987 1040.21 286.987C1121.98 286.987 1080.11 235.899 1133.31 218.869C1186.52 201.84 1259.92 193.325 1288.49 140.345Z" fill="#10BB73"/>
</g>
<defs>
<filter id="filter0_d" x="-95" y="0" width="1630" height="660" filterUnits="userSpaceOnUse" color-interpolation-filters="sRGB">
<feFlood flood-opacity="0" result="BackgroundImageFix"/>
<feColorMatrix in="SourceAlpha" type="matrix" values="0 0 0 0 0 0 0 0 0 0 0 0 0 0 0 0 0 0 127 0"/>
<feOffset dy="-5"/>
<feGaussianBlur stdDeviation="40"/>
<feColorMatrix type="matrix" values="0 0 0 0 0 0 0 0 0 0 0 0 0 0 0 0 0 0 0.25 0"/>
<feBlend mode="normal" in2="BackgroundImageFix" result="effect1_dropShadow"/>
<feBlend mode="normal" in="SourceGraphic" in2="effect1_dropShadow" result="shape"/>
</filter>
</defs>
</svg>
